<svg width="40" height="40" viewBox="0 0 40 40" fill="none" xmlns="http://www.w3.org/2000/svg">
<g clip-path="url(#clip0_94_1054)">
<path d="M39.5 20C39.5 30.7696 30.7696 39.5 20 39.5C9.23045 39.5 0.5 30.7696 0.5 20C0.5 9.23045 9.23045 0.5 20 0.5C30.7696 0.5 39.5 9.23045 39.5 20Z" fill="#FDFCFF" fill-opacity="0.78" stroke="#005FB0"/>
<path d="M28.304 18.304H21.696V11.696C21.696 10.7593 20.9367 10 20 10C19.0633 10 18.304 10.7593 18.304 11.696V18.304H11.696C10.7593 18.304 10 19.0633 10 20C10 20.9367 10.7593 21.696 11.696 21.696H18.304V28.304C18.304 29.2407 19.0633 30 20 30C20.9367 30 21.696 29.2407 21.696 28.304V21.696H28.304C29.2407 21.696 30 20.9367 30 20C30 19.0633 29.2407 18.304 28.304 18.304Z" fill="#005FB0"/>
</g>
<defs>
<clipPath id="clip0_94_1054">
<rect width="40" height="40" fill="white"/>
</clipPath>
</defs>
</svg>
