<svg width="372" height="287" viewBox="0 0 372 287" fill="none" xmlns="http://www.w3.org/2000/svg">
<g opacity="0.5">
<path d="M360.254 126.218L343.716 116.671V59.7089C343.716 49.9497 335.776 42.0098 326.017 42.0098H214.4L117.737 -13.7989C109.285 -18.6778 98.439 -15.7715 93.5594 -7.32017L65.0789 42.0105H45.9834C36.2242 42.0105 28.2844 49.9504 28.2844 59.7096V105.741L5.26759 145.605C0.387995 154.056 3.29424 164.902 11.7463 169.782L28.2836 179.329V236.291C28.2836 246.05 36.2235 253.99 45.9827 253.99H157.6L254.263 309.799C256.935 311.349 259.969 312.166 263.058 312.167C264.601 312.167 266.157 311.963 267.69 311.553C272.265 310.327 276.084 307.404 278.441 303.321L306.921 253.99H326.017C335.776 253.99 343.716 246.05 343.716 236.291V190.259L366.732 150.396C371.611 141.943 368.706 131.097 360.254 126.218ZM102.368 -2.23423C104.444 -5.82927 109.058 -7.06442 112.651 -4.98936L194.056 42.0105H76.8238L102.368 -2.23423ZM16.8323 160.973C13.238 158.898 12.0021 154.285 14.0772 150.69L28.2844 126.083V167.585L16.8323 160.973ZM269.631 298.235C268.633 299.964 267.009 301.204 265.057 301.728C263.105 302.25 261.079 301.988 259.349 300.99L177.944 253.99H295.176L269.631 298.235ZM333.544 236.292C333.544 240.442 330.168 243.819 326.017 243.819H45.9827C41.8326 243.819 38.4555 240.443 38.4555 236.292V59.7089C38.4555 55.558 41.8318 52.1817 45.9827 52.1817H326.017C330.167 52.1817 333.544 55.558 333.544 59.7089V236.292ZM357.923 145.31L343.716 169.917V128.416L355.168 135.028C358.762 137.103 359.998 141.716 357.923 145.31ZM305.276 160.734C305.276 162.083 304.74 163.376 303.786 164.33C302.833 165.284 301.539 165.82 300.19 165.82H71.1504C69.8015 165.82 68.5079 165.284 67.5541 164.33C66.6003 163.376 66.0645 162.083 66.0645 160.734C66.0645 159.385 66.6003 158.091 67.5541 157.137C68.5079 156.184 69.8015 155.648 71.1504 155.648H300.191C301.54 155.648 302.833 156.184 303.787 157.137C304.741 158.091 305.276 159.385 305.276 160.734ZM305.276 135.05C305.276 136.399 304.74 137.692 303.786 138.646C302.833 139.6 301.539 140.136 300.19 140.136H71.1504C69.8015 140.136 68.5079 139.6 67.5541 138.646C66.6003 137.692 66.0645 136.399 66.0645 135.05C66.0645 133.701 66.6003 132.407 67.5541 131.453C68.5079 130.5 69.8015 129.964 71.1504 129.964H300.191C301.54 129.964 302.833 130.5 303.787 131.453C304.741 132.407 305.276 133.701 305.276 135.05ZM305.276 83.6818C305.276 85.0307 304.74 86.3243 303.786 87.2781C302.833 88.2319 301.539 88.7677 300.19 88.7677H71.1504C69.8015 88.7677 68.5079 88.2319 67.5541 87.2781C66.6003 86.3243 66.0645 85.0307 66.0645 83.6818C66.0645 82.3329 66.6003 81.0393 67.5541 80.0855C68.5079 79.1317 69.8015 78.5959 71.1504 78.5959H300.191C301.54 78.5959 302.833 79.1317 303.787 80.0855C304.741 81.0393 305.276 82.3329 305.276 83.6818ZM305.276 109.366C305.276 110.715 304.74 112.008 303.786 112.962C302.833 113.916 301.539 114.452 300.19 114.452H71.1504C69.8015 114.452 68.5079 113.916 67.5541 112.962C66.6003 112.008 66.0645 110.715 66.0645 109.366C66.0645 108.017 66.6003 106.723 67.5541 105.769C68.5079 104.816 69.8015 104.28 71.1504 104.28H300.191C301.54 104.28 302.833 104.816 303.787 105.769C304.741 106.723 305.276 108.017 305.276 109.366ZM300.19 190.452H71.8091C70.4602 190.452 69.1666 190.988 68.2128 191.942C67.259 192.896 66.7231 194.189 66.7231 195.538V218.179C66.7231 219.528 67.259 220.821 68.2128 221.775C69.1666 222.729 70.4602 223.265 71.8091 223.265H300.191C301.54 223.265 302.833 222.729 303.787 221.775C304.741 220.821 305.277 219.528 305.277 218.179V195.538C305.277 194.189 304.741 192.896 303.787 191.942C302.833 190.988 301.539 190.452 300.19 190.452ZM295.104 213.093H76.895V200.624H295.105L295.104 213.093Z" fill="#74777F"/>
</g>
</svg>
