<svg width="13" height="14" viewBox="0 0 13 14" fill="none" xmlns="http://www.w3.org/2000/svg">
<path opacity="0.2" d="M5.03499 6.41382L7.24437 8.74523C7.4839 8.99799 7.91772 9.03407 8.40102 8.7959C9.63099 8.28596 10.0402 8.16164 10.2738 8.40817L12.8135 11.0881C13.1138 11.4049 13.0336 11.9326 12.6979 12.2869C10.9547 14.1263 8.12142 14.1263 6.37823 12.2869L1.63397 7.28055C-0.100483 5.4503 -0.100483 2.48929 1.63397 0.659033C1.97676 0.297307 2.50319 0.208304 2.81471 0.537031L5.3544 3.217C5.57453 3.44929 5.4565 3.88194 4.97589 5.17104C4.75247 5.67424 4.78827 6.15347 5.03499 6.41382Z" fill="#FDFCFF"/>
</svg>
