<svg width="16" height="16" viewBox="0 0 16 16" fill="none" xmlns="http://www.w3.org/2000/svg">
<path opacity="0.2" fill-rule="evenodd" clip-rule="evenodd" d="M16 15.1166C16 15.6043 15.6047 16 15.117 16H11.0397V9.80388H13.1196L13.4312 7.38941H11.0397V5.84746C11.0397 5.1484 11.2341 4.67204 12.2366 4.67204L13.5153 4.67161V2.51166C13.2939 2.48246 12.5351 2.41665 11.6521 2.41665C9.8085 2.41665 8.54632 3.54195 8.54632 5.60863V7.38941H6.46128V9.80388H8.54632V16H0.883005C0.395304 16 0 15.6043 0 15.1166V0.883417C0 0.395293 0.395304 0 0.883005 0H15.117C15.6047 0 16 0.395293 16 0.883417V15.1166Z" fill="#FDFCFF"/>
</svg>
