<svg width="13" height="13" viewBox="0 0 13 13" fill="none" xmlns="http://www.w3.org/2000/svg">
<path d="M7.42969 11.418L6.82812 12.0195C6.55469 12.2656 6.14453 12.2656 5.89844 12.0195L0.566406 6.71484C0.320312 6.44141 0.320312 6.03125 0.566406 5.78516L5.89844 0.453126C6.14453 0.207032 6.55469 0.207032 6.82812 0.453126L7.42969 1.05469C7.67578 1.32813 7.67578 1.73828 7.42969 2.01172L4.12109 5.15625L11.9687 5.15625C12.3516 5.15625 12.625 5.42969 12.625 5.8125L12.625 6.6875C12.625 7.04297 12.3516 7.34375 11.9687 7.34375L4.12109 7.34375L7.42969 10.4609C7.67578 10.7344 7.70312 11.1445 7.42969 11.418Z" fill="#FDFCFF"/>
</svg>
