<?xml version="1.0" encoding="UTF-8"?>
<svg version="1.1" xmlns="http://www.w3.org/2000/svg" width="256" height="158">
<path d="M0 0 C0.99 0.33 1.98 0.66 3 1 C3.6875 3.0625 3.6875 3.0625 4 5 C6.64 5 9.28 5 12 5 C10.92598892 7.91517292 10.22189824 9.77810176 8 12 C7.60235737 13.98821313 7.26224651 15.98944339 7 18 C10.89954249 16.8734655 13.2177573 15.91473044 16 13 C16.99 13 17.98 13 19 13 C19.061875 14.093125 19.12375 15.18625 19.1875 16.3125 C19.6132233 20.14332716 19.6132233 20.14332716 22.5625 21.9375 C23.7690625 22.4634375 23.7690625 22.4634375 25 23 C23.71034824 24.37562854 22.37310707 25.70766393 21 27 C20.34 27 19.68 27 19 27 C19 29.64 19 32.28 19 35 C18.29875 34.54625 17.5975 34.0925 16.875 33.625 C13.97015409 31.98313057 11.1860652 30.96322901 8 30 C7.5921468 33.56871549 7.8042175 34.73691726 10 37.6875 C10.66 38.450625 11.32 39.21375 12 40 C12 40.66 12 41.32 12 42 C9.36 42 6.72 42 4 42 C3.01 44.475 3.01 44.475 2 47 C0.515 46.505 0.515 46.505 -1 46 C-1.6875 43.9375 -1.6875 43.9375 -2 42 C-4.64 42 -7.28 42 -10 42 C-8.92598892 39.08482708 -8.22189824 37.22189824 -6 35 C-5.83312552 32.41645782 -5.83312552 32.41645782 -6 30 C-10.05281712 31.22527029 -13.44360764 32.69880494 -17 35 C-17 32.36 -17 29.72 -17 27 C-18.98 26.34 -20.96 25.68 -23 25 C-22.505 23.515 -22.505 23.515 -22 22 C-19.4375 20.8125 -19.4375 20.8125 -17 20 C-17 17.69 -17 15.38 -17 13 C-14.08482708 14.07401108 -12.22189824 14.77810176 -10 17 C-7.42938689 17.64767793 -7.42938689 17.64767793 -5 18 C-6.04536788 13.73811557 -6.74287273 10.96102479 -10 8 C-10 7.01 -10 6.02 -10 5 C-7.36 5 -4.72 5 -2 5 C-1.34 3.35 -0.68 1.7 0 0 Z " fill="#ffffff" transform="translate(131,31)"/>
<path d="M0 0 C0.99 0 1.98 0 3 0 C3 0.66 3 1.32 3 2 C4.98 2 6.96 2 9 2 C9 1.34 9 0.68 9 0 C9.99 0 10.98 0 12 0 C12.125 2.375 12.125 2.375 12 5 C11.34 5.66 10.68 6.32 10 7 C9.3574765 9.06874034 9.3574765 9.06874034 9 11 C8.34 11 7.68 11 7 11 C7 12.32 7 13.64 7 15 C6.34 15 5.68 15 5 15 C5.061875 15.680625 5.12375 16.36125 5.1875 17.0625 C4.99291651 20.11097465 4.0823527 22.02677079 2.80078125 24.75390625 C1.06411744 29.62503645 0.65312305 34.89027258 0 40 C-0.99 40 -1.98 40 -3 40 C-3 39.34 -3 38.68 -3 38 C-7.29 37.67 -11.58 37.34 -16 37 C-16 38.32 -16 39.64 -16 41 C-10.72 41 -5.44 41 0 41 C-0.33 43.97 -0.66 46.94 -1 50 C-1.99 50 -2.98 50 -4 50 C-4 49.34 -4 48.68 -4 48 C-5.91583647 47.8041991 -7.83272539 47.61867786 -9.75 47.4375 C-10.81734375 47.33308594 -11.8846875 47.22867188 -12.984375 47.12109375 C-15.64141204 47.01439926 -17.49960572 47.18069605 -20 48 C-19.85820962 45.77057252 -19.71140302 43.54146372 -19.5625 41.3125 C-19.48128906 40.07113281 -19.40007813 38.82976562 -19.31640625 37.55078125 C-19.05508683 34.61819663 -18.65201621 31.86558383 -18 29 C-17.01 29 -16.02 29 -15 29 C-15 29.66 -15 30.32 -15 31 C-14.22914062 31.06058594 -13.45828125 31.12117188 -12.6640625 31.18359375 C-11.66117188 31.26738281 -10.65828125 31.35117188 -9.625 31.4375 C-8.12839844 31.55931641 -8.12839844 31.55931641 -6.6015625 31.68359375 C-4 32 -4 32 -2 33 C-2 32.01 -2 31.02 -2 30 C-3.98 29.67 -5.96 29.34 -8 29 C-8.33 27.35 -8.66 25.7 -9 24 C-5.87709365 24.48578543 -3.00419641 24.9986012 0 26 C0 25.01 0 24.02 0 23 C-0.78375 23.04125 -1.5675 23.0825 -2.375 23.125 C-5 23 -5 23 -7 21 C-7 19.68 -7 18.36 -7 17 C-5.68 16.67 -4.36 16.34 -3 16 C-3.66 14.35 -4.32 12.7 -5 11 C-4.67 10.67 -4.34 10.34 -4 10 C-1.66055264 10.28730055 0.6739143 10.61936779 3 11 C2.34 9.68 1.68 8.36 1 7 C0.01 7 -0.98 7 -2 7 C-1.42415568 4.61435923 -0.77772405 2.33317216 0 0 Z M6 6 C7 8 7 8 7 8 Z M3 11 C3.33 11.66 3.66 12.32 4 13 C4.33 12.34 4.66 11.68 5 11 C4.34 11 3.68 11 3 11 Z M-1 17 C0.485 17.99 0.485 17.99 2 19 C2.33 18.34 2.66 17.68 3 17 C1.68 17 0.36 17 -1 17 Z " fill="#ffffff" transform="translate(37,67)"/>
<path d="M0 0 C5.61 0 11.22 0 17 0 C17.33 0.66 17.66 1.32 18 2 C18.99 1.34 19.98 0.68 21 0 C24.84927445 0.29609803 27.08761258 1.51907739 30 4 C30.70125 3.319375 31.4025 2.63875 32.125 1.9375 C35 0 35 0 38.1875 -0.0625 C41 1 41 1 42.375 3.5625 C42.58125 4.366875 42.7875 5.17125 43 6 C41.35 6.33 39.7 6.66 38 7 C38 6.01 38 5.02 38 4 C37.01 4 36.02 4 35 4 C35 6.64 35 9.28 35 12 C37.33075929 11.04134491 37.33075929 11.04134491 39 8 C40.32 8.66 41.64 9.32 43 10 C41.875 12.5 41.875 12.5 40 15 C37.0625 15.5625 37.0625 15.5625 34 15 C31.625 13 31.625 13 30 11 C29.46375 11.66 28.9275 12.32 28.375 13 C26 15 26 15 23 15.5 C19.34897746 14.89149624 18.23420469 13.89619126 16 11 C15.67 10.01 15.34 9.02 15 8 C13.824375 8.7425 13.824375 8.7425 12.625 9.5 C10 11 10 11 8 11 C8 11.99 8 12.98 8 14 C11.63 14.33 15.26 14.66 19 15 C19.33 16.65 19.66 18.3 20 20 C18.02 20.33 16.04 20.66 14 21 C14 20.01 14 19.02 14 18 C10.37 17.67 6.74 17.34 3 17 C2.67 15.35 2.34 13.7 2 12 C2.66 11.34 3.32 10.68 4 10 C3.01 9.34 2.02 8.68 1 8 C1.33 7.34 1.66 6.68 2 6 C1.34 5.01 0.68 4.02 0 3 C0 2.01 0 1.02 0 0 Z M14 4 C14.66 4.66 15.32 5.32 16 6 C16 5.34 16 4.68 16 4 C15.34 4 14.68 4 14 4 Z M22 4 C21.67 4.33 21.34 4.66 21 5 C21.28730055 7.33944736 21.61936779 9.6739143 22 12 C22.66 12 23.32 12 24 12 C24 9.36 24 6.72 24 4 C23.34 4 22.68 4 22 4 Z " fill="#ffffff" transform="translate(164,87)"/>
<path d="M0 0 C10 0 10 0 12.625 2 C13.07875 2.66 13.5325 3.32 14 4 C14.556875 3.34 15.11375 2.68 15.6875 2 C18 0 18 0 20.4375 -0.5625 C24.05824747 0.23229822 25.60851325 2.26687229 28 5 C28.391875 4.360625 28.78375 3.72125 29.1875 3.0625 C31 1 31 1 33.375 0.0625 C36.74691421 -0.01778367 38.30332144 1.05239882 41 3 C42 4 42 4 42.3125 7.3125 C42 11 42 11 40.375 13.4375 C37.24316508 15.49791771 35.68455227 15.6767545 32 15 C29.125 12.5 29.125 12.5 27 10 C26.484375 10.845625 25.96875 11.69125 25.4375 12.5625 C24.633125 13.366875 23.82875 14.17125 23 15 C19.25 14.8125 19.25 14.8125 16 14 C15.34 12.35 14.68 10.7 14 9 C13.34 9 12.68 9 12 9 C11.34 10.32 10.68 11.64 10 13 C8.68 13 7.36 13 6 13 C6.020625 14.134375 6.04125 15.26875 6.0625 16.4375 C6 20 6 20 5 21 C3.35 21 1.7 21 0 21 C0 14.07 0 7.14 0 0 Z M6 3 C6 4.98 6 6.96 6 9 C6.66 9 7.32 9 8 9 C8 7.35 8 5.7 8 4 C7.34 3.67 6.68 3.34 6 3 Z M20 3 C19.67 3.99 19.34 4.98 19 6 C19.99 5.67 20.98 5.34 22 5 C21.34 4.34 20.68 3.68 20 3 Z M34 4 C34 6.64 34 9.28 34 12 C34.99 11.67 35.98 11.34 37 11 C37 9.02 37 7.04 37 5 C36.01 4.67 35.02 4.34 34 4 Z M19 9 C19 9.99 19 10.98 19 12 C19.66 12 20.32 12 21 12 C21.33 11.01 21.66 10.02 22 9 C21.01 9 20.02 9 19 9 Z " fill="#ffffff" transform="translate(86,87)"/>
<path d="M0 0 C2.91517292 1.07401108 4.77810176 1.77810176 7 4 C7.125 6.625 7.125 6.625 7 9 C7.763125 8.79375 8.52625 8.5875 9.3125 8.375 C12 8 12 8 15 10 C15.375 12.5 15.375 12.5 15 15 C14.01 15.66 13.02 16.32 12 17 C11.67 17.99 11.34 18.98 11 20 C11.5775 19.360625 12.155 18.72125 12.75 18.0625 C14.98750519 16.01145358 16.03308256 15.29669174 19 15 C19.66 15.33 20.32 15.66 21 16 C20.67 17.65 20.34 19.3 20 21 C21.65 21 23.3 21 25 21 C25.6875 22.8125 25.6875 22.8125 26 25 C24.75 26.75 24.75 26.75 23 28 C22.01 28 21.02 28 20 28 C20 28.66 20 29.32 20 30 C21.0725 29.484375 22.145 28.96875 23.25 28.4375 C25.71477612 27.36759718 26.72132303 26.96427218 29.4375 27.3125 C29.953125 27.539375 30.46875 27.76625 31 28 C31 29.32 31 30.64 31 32 C31.99 32.33 32.98 32.66 34 33 C33.78515625 34.859375 33.78515625 34.859375 33 37 C30.93359375 38.265625 30.93359375 38.265625 28.4375 39.25 C27.61121094 39.58515625 26.78492188 39.9203125 25.93359375 40.265625 C25.29550781 40.50796875 24.65742188 40.7503125 24 41 C22.875 37.25 22.875 37.25 24 35 C23.21625 34.896875 22.4325 34.79375 21.625 34.6875 C19 34 19 34 17 31 C17 30.01 17 29.02 17 28 C15.68 27.34 14.36 26.68 13 26 C13 25.01 13 24.02 13 23 C12.443125 22.7525 11.88625 22.505 11.3125 22.25 C8.51259025 20.73653527 6.28798711 19.22443191 4 17 C3.6875 14.25 3.6875 14.25 4 12 C1.03 11.505 1.03 11.505 -2 11 C-2.66 12.32 -3.32 13.64 -4 15 C-5.32 14.67 -6.64 14.34 -8 14 C-7.52451444 9.72062994 -4.93582149 7.93582149 -2 5 C-0.680982 2.33466965 -0.680982 2.33466965 0 0 Z M3 5 C2.34 6.32 1.68 7.64 1 9 C1.99 8.34 2.98 7.68 4 7 C3.67 6.34 3.34 5.68 3 5 Z M8 15 C8 15.66 8 16.32 8 17 C8.66 16.67 9.32 16.34 10 16 C9.34 15.67 8.68 15.34 8 15 Z M16 23 C16 23.66 16 24.32 16 25 C16.66 25 17.32 25 18 25 C18 24.34 18 23.68 18 23 C17.34 23 16.68 23 16 23 Z " fill="#ffffff" transform="translate(190,29)"/>
<path d="M0 0 C1.32 0 2.64 0 4 0 C5.125 4.75 5.125 4.75 4 7 C5.32 7.66 6.64 8.32 8 9 C8 10.65 8 12.3 8 14 C5.36 13.34 2.72 12.68 0 12 C0.66 13.65 1.32 15.3 2 17 C5.96 16.505 5.96 16.505 10 16 C10.33 16.99 10.66 17.98 11 19 C10.67 19.66 10.34 20.32 10 21 C9.01 21.33 8.02 21.66 7 22 C8.65 22.33 10.3 22.66 12 23 C12 24.32 12 25.64 12 27 C9.69 27.66 7.38 28.32 5 29 C5.99 29 6.98 29 8 29 C9.66666667 29 11.33333333 29 13 29 C13.33 30.65 13.66 32.3 14 34 C11.29120665 35.35439668 8.99066732 35.06501451 6 35 C6.33 35.66 6.66 36.32 7 37 C7.94875 36.814375 8.8975 36.62875 9.875 36.4375 C13 36 13 36 15 37 C14.67 38.65 14.34 40.3 14 42 C11.69 42 9.38 42 7 42 C7 42.66 7 43.32 7 44 C9.64 44 12.28 44 15 44 C15.33 45.32 15.66 46.64 16 48 C12.04395608 49.21724428 7.79359325 49.89679663 4 48 C3.73863645 45.53783652 3.57852777 43.15650535 3.5 40.6875 C3.35961139 36.34784026 3.15630695 32.85818558 1 29 C1.375 26.25 1.375 26.25 2 24 C2.66 24 3.32 24 4 24 C4 23.34 4 22.68 4 22 C2.35 22 0.7 22 -1 22 C-1 20.68 -1 19.36 -1 18 C-2.32 17.67 -3.64 17.34 -5 17 C-4.67 15.02 -4.34 13.04 -4 11 C-4.639375 10.731875 -5.27875 10.46375 -5.9375 10.1875 C-8 9 -8 9 -9 6 C-8.67 5.34 -8.34 4.68 -8 4 C-7.34 4 -6.68 4 -6 4 C-6 4.66 -6 5.32 -6 6 C-4.02 6 -2.04 6 0 6 C-0.2784375 4.7934375 -0.2784375 4.7934375 -0.5625 3.5625 C-0.706875 2.716875 -0.85125 1.87125 -1 1 C-0.67 0.67 -0.34 0.34 0 0 Z " fill="#ffffff" transform="translate(223,66)"/>
<path d="M0 0 C0.66 0 1.32 0 2 0 C2.33 2.31 2.66 4.62 3 7 C3.28875 6.195625 3.5775 5.39125 3.875 4.5625 C5 2 5 2 7 1 C7.31806054 8.7276932 7.32270836 14.93924474 4 22 C1.69 22.33 -0.62 22.66 -3 23 C-2.9278125 22.33613281 -2.855625 21.67226562 -2.78125 20.98828125 C-2.64203125 19.66376953 -2.64203125 19.66376953 -2.5 18.3125 C-2.36078125 17.00732422 -2.36078125 17.00732422 -2.21875 15.67578125 C-2.00840136 13.10276661 -1.96280856 10.58015636 -2 8 C-2.99 8.66 -3.98 9.32 -5 10 C-4.67 10.33 -4.34 10.66 -4 11 C-3.5689742 14.79302705 -3.74234622 16.57671165 -5.75 19.875 C-8 22 -8 22 -12 22 C-12 22.99 -12 23.98 -12 25 C-12.99 25.33 -13.98 25.66 -15 26 C-15.226875 25.360625 -15.45375 24.72125 -15.6875 24.0625 C-16.84191647 21.7227493 -16.84191647 21.7227493 -19.58203125 21.37109375 C-20.37996094 21.24863281 -21.17789063 21.12617188 -22 21 C-22.05428973 18.77110504 -22.09292338 16.54182529 -22.125 14.3125 C-22.15980469 12.45044922 -22.15980469 12.45044922 -22.1953125 10.55078125 C-22.01032021 7.18762143 -21.45767895 5.0014413 -20 2 C-19.34 2 -18.68 2 -18 2 C-18.33 6.95 -18.66 11.9 -19 17 C-17.68 16.67 -16.36 16.34 -15 16 C-14.67 15.34 -14.34 14.68 -14 14 C-13.01 14.33 -12.02 14.66 -11 15 C-11.33 15.66 -11.66 16.32 -12 17 C-11.34 16.67 -10.68 16.34 -10 16 C-10 14.35 -10 12.7 -10 11 C-10.66 10.67 -11.32 10.34 -12 10 C-11.8125 8.125 -11.8125 8.125 -11 6 C-8.10888212 4.47835901 -6.28176588 4 -3 4 C-1.9739266 2.68662604 -0.97272675 1.35335895 0 0 Z M1 17 C2 19 2 19 2 19 Z " fill="#ffffff" transform="translate(147,113)"/>
<path d="M0 0 C0.680625 0.7115625 0.680625 0.7115625 1.375 1.4375 C3.46366683 3.44583349 5.1783448 3.61869524 8 4 C8 5.32 8 6.64 8 8 C6.35 8.33 4.7 8.66 3 9 C2.67 9.99 2.34 10.98 2 12 C0.68 12 -0.64 12 -2 12 C-2.12375 12.639375 -2.2475 13.27875 -2.375 13.9375 C-2.58125 14.618125 -2.7875 15.29875 -3 16 C-3.66 16.33 -4.32 16.66 -5 17 C-5.99 16.67 -6.98 16.34 -8 16 C-7.67 17.32 -7.34 18.64 -7 20 C-8.32 20.33 -9.64 20.66 -11 21 C-11.33 22.32 -11.66 23.64 -12 25 C-13.65 24.67 -15.3 24.34 -17 24 C-16.34 24.66 -15.68 25.32 -15 26 C-15.375 28.125 -15.375 28.125 -16 30 C-17.32 30 -18.64 30 -20 30 C-20.33 29.01 -20.66 28.02 -21 27 C-22.99665314 25.31461399 -22.99665314 25.31461399 -25 24 C-24.625 22.0625 -24.625 22.0625 -24 20 C-23.34 19.67 -22.68 19.34 -22 19 C-20.86649466 16.98330173 -20.86649466 16.98330173 -20 15 C-19.34 15 -18.68 15 -18 15 C-17.79375 14.46375 -17.5875 13.9275 -17.375 13.375 C-15.42003056 9.9982346 -12.81776305 7.69525161 -10 5 C-9.01 5.33 -8.02 5.66 -7 6 C-6.6278958 7.32303717 -6.29369827 8.65737935 -6 10 C-5.34 10.33 -4.68 10.66 -4 11 C-4 9.35 -4 7.7 -4 6 C-4.99 5.67 -5.98 5.34 -7 5 C-5.64703851 0.94111554 -4.27479763 0 0 0 Z M0 7 C1 9 1 9 1 9 Z M-15 15 C-15.66 15.66 -16.32 16.32 -17 17 C-15.68 18.32 -14.36 19.64 -13 21 C-12.34 20.67 -11.68 20.34 -11 20 C-11.96885372 18.31503702 -12.96986723 16.64821244 -14 15 C-14.33 15 -14.66 15 -15 15 Z " fill="#ffffff" transform="translate(72,31)"/>
<path d="M0 0 C-1.05750847 3.06677455 -1.84635923 3.91619594 -4.75 5.5 C-5.8225 5.995 -6.895 6.49 -8 7 C-12.67190365 9.52373704 -12.67190365 9.52373704 -15.1640625 14.015625 C-15.66850216 17.21487283 -15.66850216 17.21487283 -15.7890625 20.328125 C-16 23 -16 23 -18 26 C-19.96249487 26.0654165 -21.92862061 26.1178291 -23.890625 26.0390625 C-26.67144335 25.98756586 -29.28004986 26.45600997 -32 27 C-32.0928125 28.051875 -32.0928125 28.051875 -32.1875 29.125 C-33.30988271 33.09650804 -35.02689062 35.15615624 -38 38 C-41.5625 39.125 -41.5625 39.125 -45 39 C-47.5 37.625 -47.5 37.625 -49 35 C-49.18519653 30.32799656 -48.60453513 26.9068027 -46 23 C-45.34 23 -44.68 23 -44 23 C-44 25.97 -44 28.94 -44 32 C-40.535 31.505 -40.535 31.505 -37 31 C-36.01 28.03 -35.02 25.06 -34 22 C-32.72125 21.855625 -31.4425 21.71125 -30.125 21.5625 C-27.74307106 21.29357254 -26.15547309 21.07773654 -24 20 C-22.32345271 20.27942455 -20.65391846 20.60828247 -19 21 C-18.97421875 20.33613281 -18.9484375 19.67226562 -18.921875 18.98828125 C-18.66846411 15.04313448 -18.40610382 11.81220765 -16.625 8.25 C-12.09667914 4.36858212 -6.11030784 0 0 0 Z " fill="#ffffff" transform="translate(66,109)"/>
<path d="M0 0 C-1.05750847 3.06677455 -1.84635923 3.91619594 -4.75 5.5 C-5.8225 5.995 -6.895 6.49 -8 7 C-12.66375272 9.49652851 -12.66375272 9.49652851 -15.09375 13.98046875 C-15.54717433 17.15235833 -15.54717433 17.15235833 -15.59375 20.23046875 C-16.10531073 23.71793563 -17.40513577 24.7213378 -20 27 C-20.268125 27.721875 -20.53625 28.44375 -20.8125 29.1875 C-21.204375 29.785625 -21.59625 30.38375 -22 31 C-25.625 31.75 -25.625 31.75 -29 32 C-29.33 31.34 -29.66 30.68 -30 30 C-29.34 29.01 -28.68 28.02 -28 27 C-26.68 27 -25.36 27 -24 27 C-24 26.34 -24 25.68 -24 25 C-24.66 25.33 -25.32 25.66 -26 26 C-27.11375 25.95875 -28.2275 25.9175 -29.375 25.875 C-33.17550316 26.00605183 -34.32511434 26.43210977 -37 29 C-36.125 24.25 -36.125 24.25 -35 22 C-35.99 21.01 -36.98 20.02 -38 19 C-36.68 18.01 -35.36 17.02 -34 16 C-33.34 16.33 -32.68 16.66 -32 17 C-32 16.34 -32 15.68 -32 15 C-30.68 15.33 -29.36 15.66 -28 16 C-28.33 17.32 -28.66 18.64 -29 20 C-28.01 20 -27.02 20 -26 20 C-25.67 19.34 -25.34 18.68 -25 18 C-24.01 18 -23.02 18 -22 18 C-22 18.66 -22 19.32 -22 20 C-21.01 20.33 -20.02 20.66 -19 21 C-18.97421875 20.33613281 -18.9484375 19.67226562 -18.921875 18.98828125 C-18.66846411 15.04313448 -18.40610382 11.81220765 -16.625 8.25 C-12.09667914 4.36858212 -6.11030784 0 0 0 Z " fill="#ffffff" transform="translate(204,109)"/>
<path d="M0 0 C2.0625 0.1875 2.0625 0.1875 4 1 C4.33 1.99 4.66 2.98 5 4 C5.5775 3.484375 6.155 2.96875 6.75 2.4375 C9 1 9 1 11.1875 1.125 C12.0846875 1.558125 12.0846875 1.558125 13 2 C13.33 2.99 13.66 3.98 14 5 C12.68 5 11.36 5 10 5 C9.34 6.65 8.68 8.3 8 10 C8.99 9.67 9.98 9.34 11 9 C13.1875 9.4375 13.1875 9.4375 15 10 C15.33 7.69 15.66 5.38 16 3 C17.32 3 18.64 3 20 3 C20.33 4.65 20.66 6.3 21 8 C21.33 7.01 21.66 6.02 22 5 C24.475 5.495 24.475 5.495 27 6 C26.01 9.3 25.02 12.6 24 16 C22.68 15.67 21.36 15.34 20 15 C20.33 13.68 20.66 12.36 21 11 C20.01 11 19.02 11 18 11 C18 11.99 18 12.98 18 14 C16.39884424 14.2493357 14.79379841 14.47378648 13.1875 14.6875 C12.29417969 14.81511719 11.40085938 14.94273438 10.48046875 15.07421875 C8 15 8 15 6.17578125 13.51953125 C5.59376953 12.76736328 5.59376953 12.76736328 5 12 C4.34 12.66 3.68 13.32 3 14 C0.375 13.625 0.375 13.625 -2 13 C-2 12.34 -2 11.68 -2 11 C-1.01 10.67 -0.02 10.34 1 10 C1.66 9.01 2.32 8.02 3 7 C1.68 6.67 0.36 6.34 -1 6 C-1.625 4.125 -1.625 4.125 -2 2 C-1.34 1.34 -0.68 0.68 0 0 Z " fill="#ffffff" transform="translate(133,10)"/>
<path d="M0 0 C0.99 0 1.98 0 3 0 C3 1.98 3 3.96 3 6 C4.32 6.33 5.64 6.66 7 7 C7.33 8.65 7.66 10.3 8 12 C8.66 10.02 9.32 8.04 10 6 C10.99 6 11.98 6 13 6 C12.54917531 7.46067199 12.08906463 8.91848032 11.625 10.375 C11.24214844 11.59316406 11.24214844 11.59316406 10.8515625 12.8359375 C10 15 10 15 8 17 C5.62745356 17.12471821 3.25079288 17.17569188 0.875 17.1875 C-5.47334525 17.39403605 -9.02592887 18.62934352 -13.42578125 23.27734375 C-13.94527344 23.84582031 -14.46476563 24.41429687 -15 25 C-19.35483871 28 -19.35483871 28 -23 28 C-21.86327693 24.58983079 -21.16865599 24.16232785 -18.3125 22.1875 C-15.52543008 20.20028437 -13.17212326 18.2222567 -10.875 15.6875 C-7.75881657 12.77454592 -6.18932835 12.19949183 -2 12 C-1.90912109 11.07767578 -1.90912109 11.07767578 -1.81640625 10.13671875 C-1.73261719 9.32847656 -1.64882812 8.52023438 -1.5625 7.6875 C-1.48128906 6.88699219 -1.40007812 6.08648437 -1.31640625 5.26171875 C-1 3 -1 3 0 0 Z " fill="#ffffff" transform="translate(226,118)"/>
<path d="M0 0 C3.53066838 3.42367843 5.60184151 7.78188622 7.8515625 12.109375 C8.86372052 14.15363884 8.86372052 14.15363884 11 15 C11 15.99 11 16.98 11 18 C3.74 18 -3.52 18 -11 18 C-11 17.01 -11 16.02 -11 15 C-10.2575 14.814375 -9.515 14.62875 -8.75 14.4375 C-4.83471421 12.39087334 -3.95624725 9.9124945 -2 6 C-2.78375 6.20625 -3.5675 6.4125 -4.375 6.625 C-5.24125 6.74875 -6.1075 6.8725 -7 7 C-7.66 6.34 -8.32 5.68 -9 5 C-8.75 2.4375 -8.75 2.4375 -8 0 C-4.99733781 -1.5013311 -3.18669322 -0.8922741 0 0 Z M1 12 C0.67 12.99 0.34 13.98 0 15 C1.32 15 2.64 15 4 15 C3.67 14.01 3.34 13.02 3 12 C2.34 12 1.68 12 1 12 Z " fill="#ffffff" transform="translate(139,84)"/>
<path d="M0 0 C2 3 2 3 1.75 5.5625 C1 8 1 8 -1 10 C-0.67958603 12.60280568 -0.67958603 12.60280568 0 15 C-1.65 15.33 -3.3 15.66 -5 16 C-5.99 12.37 -6.98 8.74 -8 5 C-8.66 5 -9.32 5 -10 5 C-11.25541557 8.76624671 -10.37061958 10.37188934 -9 14 C-10.98 14.99 -10.98 14.99 -13 16 C-13.99 14.02 -14.98 12.04 -16 10 C-16.33 10.33 -16.66 10.66 -17 11 C-19.33297433 11.04092937 -21.66705225 11.04241723 -24 11 C-23.890625 9.1953125 -23.890625 9.1953125 -23 7 C-20.234375 5.3671875 -20.234375 5.3671875 -16.75 3.875 C-15.61046875 3.37742187 -14.4709375 2.87984375 -13.296875 2.3671875 C-11.66492188 1.69042969 -11.66492188 1.69042969 -10 1 C-9.09121094 0.60683594 -8.18242188 0.21367187 -7.24609375 -0.19140625 C-4.39931595 -1.21624626 -2.83555919 -0.99627755 0 0 Z M-4 2 C-3.67 3.32 -3.34 4.64 -3 6 C-2.67 5.34 -2.34 4.68 -2 4 C-2.66 3.34 -3.32 2.68 -4 2 Z " fill="#ffffff" transform="translate(100,18)"/>
<path d="M0 0 C0.86625 0.020625 1.7325 0.04125 2.625 0.0625 C3.615 0.0625 4.605 0.0625 5.625 0.0625 C7.275 0.3925 8.925 0.7225 10.625 1.0625 C10.295 5.6825 9.965 10.3025 9.625 15.0625 C7.975 15.0625 6.325 15.0625 4.625 15.0625 C3.965 13.0825 3.305 11.1025 2.625 9.0625 C1.965 11.0425 1.305 13.0225 0.625 15.0625 C-1.025 14.7325 -2.675 14.4025 -4.375 14.0625 C-4.23470581 11.9162974 -4.08761836 9.77053782 -3.9375 7.625 C-3.85628906 6.43003906 -3.77507813 5.23507813 -3.69140625 4.00390625 C-3.26996373 0.08605168 -3.26996373 0.08605168 0 0 Z " fill="#ffffff" transform="translate(61.375,86.9375)"/>
<path d="M0 0 C1.98 0 3.96 0 6 0 C6.2475 0.78375 6.495 1.5675 6.75 2.375 C8.15389099 5.32317108 9.00675737 5.9024777 12 7 C11.67 8.32 11.34 9.64 11 11 C10.195625 10.979375 9.39125 10.95875 8.5625 10.9375 C6.06645115 10.70366379 6.06645115 10.70366379 5 12 C3.88625 11.9690625 3.88625 11.9690625 2.75 11.9375 C-0.26690812 12.00606609 -2.27588278 12.75468927 -5 14 C-6.59138085 9.82262526 -7.21278058 6.46839215 -7 2 C-4.525 2.495 -4.525 2.495 -2 3 C-2 4.32 -2 5.64 -2 7 C-1.01 5.68 -0.02 4.36 1 3 C0.34 3 -0.32 3 -1 3 C-0.67 2.01 -0.34 1.02 0 0 Z " fill="#ffffff" transform="translate(109,13)"/>
<path d="M0 0 C0.99 0 1.98 0 3 0 C2.979375 0.804375 2.95875 1.60875 2.9375 2.4375 C2.70366379 4.93354885 2.70366379 4.93354885 4 6 C4.66 4.35 5.32 2.7 6 1 C6.66 1 7.32 1 8 1 C7.91262287 3.56406672 7.80570881 6.12482216 7.6875 8.6875 C7.65366211 9.7693457 7.65366211 9.7693457 7.61914062 10.87304688 C7.37448955 15.74382735 6.60458021 19.39541979 3 23 C1.33382885 23.04063832 -0.33388095 23.042721 -2 23 C-2.33 22.01 -2.66 21.02 -3 20 C-2.34 20 -1.68 20 -1 20 C-1.01160156 19.30132812 -1.02320312 18.60265625 -1.03515625 17.8828125 C-1.04417969 16.97273438 -1.05320312 16.06265625 -1.0625 15.125 C-1.07410156 14.22007813 -1.08570312 13.31515625 -1.09765625 12.3828125 C-1 10 -1 10 0 8 C-0.66 8 -1.32 8 -2 8 C-1.125 2.25 -1.125 2.25 0 0 Z M2 16 C3 18 3 18 3 18 Z " fill="#ffffff" transform="translate(88,113)"/>
<path d="M0 0 C3.33794538 1.16102448 4.3364746 1.83747557 5.875 5 C6.40793835 8.65443439 6.3503727 10.30522452 4.25 13.375 C1.16313568 15.48706506 -0.4532913 15.61195145 -4.125 15 C-6.5 13.4375 -6.5 13.4375 -8.125 11 C-8.6875 7.5 -8.6875 7.5 -8.125 4 C-5.45946825 0.86408029 -4.13747529 0 0 0 Z M-2.125 4 C-2.125 6.64 -2.125 9.28 -2.125 12 C-1.465 12 -0.805 12 -0.125 12 C-0.125 9.36 -0.125 6.72 -0.125 4 C-0.785 4 -1.445 4 -2.125 4 Z " fill="#ffffff" transform="translate(80.125,87)"/>
<path d="M0 0 C0.99 0.33 1.98 0.66 3 1 C3 1.66 3 2.32 3 3 C3.66 3 4.32 3 5 3 C4.65252255 11.94754427 4.65252255 11.94754427 2.0625 16.125 C0 18 0 18 -2 18 C-2.185625 18.763125 -2.37125 19.52625 -2.5625 20.3125 C-4.63445622 24.18615728 -6.92286538 24.56545263 -11 26 C-11 25.01 -11 24.02 -11 23 C-8.5 20.8125 -8.5 20.8125 -6 19 C-6.391875 18.443125 -6.78375 17.88625 -7.1875 17.3125 C-7.455625 16.549375 -7.72375 15.78625 -8 15 C-6.625 12.25 -6.625 12.25 -5 10 C-4.01 10.33 -3.02 10.66 -2 11 C-2 11.66 -2 12.32 -2 13 C-1.34 12.67 -0.68 12.34 0 12 C0 11.01 0 10.02 0 9 C-0.99 8.67 -1.98 8.34 -3 8 C-2.37240135 5.07120629 -1.41377341 2.63904371 0 0 Z " fill="#ffffff" transform="translate(74,117)"/>
<path d="M0 0 C3.02210903 1.2398396 4.50602577 2.35316495 6.4375 5 C7.04945145 8.6717087 6.92456506 10.28813568 4.8125 13.375 C1.72563568 15.48706506 0.1092087 15.61195145 -3.5625 15 C-5.9375 13.4375 -5.9375 13.4375 -7.5625 11 C-8.125 7.5 -8.125 7.5 -7.5625 4 C-5.10190405 1.18789035 -3.78589784 0 0 0 Z M-1.5625 4 C-1.8925 4.33 -2.2225 4.66 -2.5625 5 C-2.27519945 7.33944736 -1.94313221 9.6739143 -1.5625 12 C-0.9025 12 -0.2425 12 0.4375 12 C0.4375 9.36 0.4375 6.72 0.4375 4 C-0.2225 4 -0.8825 4 -1.5625 4 Z " fill="#ffffff" transform="translate(157.5625,87)"/>
<path d="M0 0 C0.99 0.33 1.98 0.66 3 1 C2.7834375 1.56589844 2.566875 2.13179688 2.34375 2.71484375 C2.0653125 3.44832031 1.786875 4.18179688 1.5 4.9375 C1.2215625 5.66839844 0.943125 6.39929688 0.65625 7.15234375 C-0.05578254 8.83026456 -0.05578254 8.83026456 0 10 C1.32 10.33 2.64 10.66 4 11 C3.67 11.99 3.34 12.98 3 14 C0.36 14.33 -2.28 14.66 -5 15 C-5 14.01 -5 13.02 -5 12 C-9.70611622 13.32359519 -12.51436088 16.12178949 -15.9375 19.44140625 C-18.30222097 21.22838289 -20.08839712 21.63099477 -23 22 C-21.86327693 18.58983079 -21.16865599 18.16232785 -18.3125 16.1875 C-15.52543008 14.20028437 -13.17212326 12.2222567 -10.875 9.6875 C-7.75881657 6.77454592 -6.18932835 6.19949183 -2 6 C-1.34 4.02 -0.68 2.04 0 0 Z " fill="#ffffff" transform="translate(206,124)"/>
<path d="M0 0 C0.66 0 1.32 0 2 0 C1.67 3.96 1.34 7.92 1 12 C2.32 11.67 3.64 11.34 5 11 C5.33 12.65 5.66 14.3 6 16 C1.32539218 20.55774263 -1.48277089 21.66290194 -8 22 C-8.33 21.01 -8.66 20.02 -9 19 C-8.195625 18.54625 -7.39125 18.0925 -6.5625 17.625 C-3.91143428 16.25274335 -3.91143428 16.25274335 -3 14 C-2.72620559 11.50542871 -2.55450855 9.01107933 -2.37890625 6.5078125 C-1.99386903 3.95942185 -1.27586046 2.2211336 0 0 Z " fill="#ffffff" transform="translate(118,113)"/>
<path d="M0 0 C2 3 2 3 1.625 5.6875 C1.41875 6.450625 1.2125 7.21375 1 8 C-0.32 8.33 -1.64 8.66 -3 9 C-3 10.98 -3 12.96 -3 15 C-4.32 15.33 -5.64 15.66 -7 16 C-8.17887665 12.31601048 -8 8.84052967 -8 5 C-8.28520405 3.32442621 -8.59955696 1.65182755 -9 0 C-5.67638732 -0.83090317 -3.22353302 -1.33387573 0 0 Z M-3 3 C-2 6 -2 6 -2 6 Z " fill="#ffffff" transform="translate(129,12)"/>
<path d="M0 0 C2.66666667 1.33333333 5.33333333 2.66666667 8 4 C8 5.32 8 6.64 8 8 C7.34 8 6.68 8 6 8 C5.34 9.98 4.68 11.96 4 14 C2.68 14 1.36 14 0 14 C0 12.02 0 10.04 0 8 C-0.99 9.485 -0.99 9.485 -2 11 C-3.32 10.67 -4.64 10.34 -6 10 C-6 9.01 -6 8.02 -6 7 C-5.34 7 -4.68 7 -4 7 C-3.71125 6.21625 -3.4225 5.4325 -3.125 4.625 C-2 2 -2 2 0 0 Z " fill="#ffffff" transform="translate(181,23)"/>
<path d="M0 0 C0.625 1.875 0.625 1.875 1 4 C0.34 4.66 -0.32 5.32 -1 6 C-1.6425235 8.06874034 -1.6425235 8.06874034 -2 10 C-4.875 10.1875 -4.875 10.1875 -8 10 C-10 7 -10 7 -9.75 3.375 C-9.5025 2.26125 -9.255 1.1475 -9 0 C-5.93109813 -1.53445094 -3.29905734 -0.54984289 0 0 Z M-5 2 C-5.33 3.65 -5.66 5.3 -6 7 C-5.01 6.34 -4.02 5.68 -3 5 C-3 4.01 -3 3.02 -3 2 C-3.66 2 -4.32 2 -5 2 Z " fill="#ffffff" transform="translate(169,18)"/>
<path d="M0 0 C0.66 0 1.32 0 2 0 C2.34180073 6.94994827 1.83390808 13.54968684 -1 20 C-3.56530287 22.42973809 -4.40908648 23 -8 23 C-7.505 21.515 -7.505 21.515 -7 20 C-6.34 20 -5.68 20 -5 20 C-2.96294816 15.47413078 -2.61576336 11.52413464 -2.34375 6.62109375 C-1.99856016 3.98902123 -1.32818888 2.27613015 0 0 Z " fill="#ffffff" transform="translate(158,115)"/>
<path d="M0 0 C0.99 0.33 1.98 0.66 3 1 C3.94735511 4.61717404 4.09147657 6.69698387 3 10.3125 C1 13 1 13 -2.6875 13.875 C-3.780625 13.91625 -4.87375 13.9575 -6 14 C-6 13.34 -6 12.68 -6 12 C-3.5 10.375 -3.5 10.375 -1 9 C-1.20625 8.071875 -1.4125 7.14375 -1.625 6.1875 C-2 3 -2 3 0 0 Z " fill="#ffffff" transform="translate(62,123)"/>
<path d="M0 0 C0.99 0 1.98 0 3 0 C2.53579745 4.73486599 1.9390105 8.19017158 -1 12 C-4.00658118 14.03671629 -5.19096596 14 -9 14 C-9 13.34 -9 12.68 -9 12 C-8.071875 11.46375 -7.14375 10.9275 -6.1875 10.375 C-1.99966651 7.25465347 -1.4767178 4.92239266 0 0 Z " fill="#ffffff" transform="translate(83,123)"/>
<path d="M0 0 C0.99 0 1.98 0 3 0 C2.88521587 2.06309376 2.75773802 4.12548354 2.625 6.1875 C2.55539063 7.33605469 2.48578125 8.48460938 2.4140625 9.66796875 C2.02490426 12.79959117 1.3190149 15.15285809 0 18 C-0.66 18 -1.32 18 -2 18 C-2.23268915 11.71739294 -1.40454548 6.11980533 0 0 Z " fill="#ffffff" transform="translate(99,117)"/>
<path d="M0 0 C4.75 0.75 4.75 0.75 7 3 C7 3.99 7 4.98 7 6 C4.69 5.67 2.38 5.34 0 5 C-0.33 4.01 -0.66 3.02 -1 2 C-0.67 1.34 -0.34 0.68 0 0 Z " fill="#ffffff" transform="translate(50,79)"/>
<path d="M0 0 C2.475 0.495 2.475 0.495 5 1 C5.33 2.32 5.66 3.64 6 5 C4.68 5 3.36 5 2 5 C1.34 4.34 0.68 3.68 0 3 C0 2.01 0 1.02 0 0 Z " fill="#ffffff" transform="translate(180,16)"/>
<path d="M0 0 C1.32 0 2.64 0 4 0 C5 3 5 3 4 6 C3.01 6 2.02 6 1 6 C0.67 4.02 0.34 2.04 0 0 Z " fill="#ffffff" transform="translate(220,50)"/>
<path d="M0 0 C1.65 0 3.3 0 5 0 C4.34 1.32 3.68 2.64 3 4 C1.68 4 0.36 4 -1 4 C-0.67 2.68 -0.34 1.36 0 0 Z " fill="#ffffff" transform="translate(41,49)"/>
<path d="M0 0 C1.98 0.495 1.98 0.495 4 1 C3.67 2.32 3.34 3.64 3 5 C1.68 4.67 0.36 4.34 -1 4 C-0.67 2.68 -0.34 1.36 0 0 Z " fill="#ffffff" transform="translate(59,116)"/>
<path d="M0 0 C1.98 0.495 1.98 0.495 4 1 C3.34 2.32 2.68 3.64 2 5 C1.01 4.67 0.02 4.34 -1 4 C-0.67 2.68 -0.34 1.36 0 0 Z " fill="#ffffff" transform="translate(234,135)"/>
</svg>
