<svg width="62" height="62" viewBox="0 0 62 62" fill="none" xmlns="http://www.w3.org/2000/svg">
<path d="M46.1125 47.2752C44.3809 44.9684 43.0332 42.3972 42.1213 39.6608C41.948 39.1904 41.5992 38.8054 41.1481 38.5868C40.6969 38.3682 40.1786 38.3329 39.7021 38.4884C39.2255 38.644 38.8278 38.9781 38.5924 39.4208C38.3571 39.8634 38.3024 40.38 38.44 40.8621C39.0855 42.8254 39.9362 44.7153 40.9781 46.5002H7.47875C10.204 41.7897 11.6344 36.4421 11.625 31.0002V26.1564C11.6219 23.3263 12.578 20.5786 14.3374 18.3618C16.0968 16.1449 18.5556 14.5898 21.3125 13.9502C22.2616 13.7021 23.2378 13.5719 24.2188 13.5627H24.4706C24.9791 13.6229 25.4907 13.4794 25.8937 13.1635C26.2967 12.8477 26.5582 12.3852 26.6213 11.8771C26.6566 11.6223 26.6408 11.3631 26.5749 11.1145C26.509 10.8659 26.3942 10.6329 26.2373 10.4291C26.0804 10.2253 25.8845 10.0548 25.661 9.9275C25.4375 9.80021 25.1909 9.71868 24.9356 9.68768C23.8161 9.57064 22.6851 9.62948 21.5838 9.86206C21.4213 9.50179 21.3292 9.11378 21.3125 8.71893C21.3125 7.94815 21.6187 7.20893 22.1637 6.66391C22.7087 6.11888 23.448 5.81268 24.2188 5.81268C24.6694 5.81564 25.1134 5.92199 25.5165 6.12353C25.9195 6.32507 26.271 6.61644 26.5438 6.97518C26.6805 7.21063 26.8653 7.41461 27.0862 7.57383C27.307 7.73305 27.559 7.84393 27.8256 7.89925C28.0921 7.95457 28.3674 7.95308 28.6334 7.89487C28.8993 7.83667 29.1501 7.72307 29.3692 7.56146C29.5883 7.39986 29.7709 7.19389 29.9051 6.95698C30.0393 6.72007 30.122 6.45754 30.1479 6.18651C30.1738 5.91548 30.1423 5.64203 30.0554 5.38399C29.9686 5.12595 29.8283 4.88912 29.6438 4.68893C28.6778 3.38873 27.2773 2.47845 25.6969 2.12368C24.1165 1.7689 22.4612 1.99322 21.0322 2.75581C19.6032 3.51841 18.4955 4.76861 17.9104 6.279C17.3254 7.78938 17.302 9.4596 17.8444 10.9858C14.8495 12.2319 12.2917 14.3386 10.4948 17.0392C8.69791 19.7397 7.74266 22.9127 7.75 26.1564V31.0002C7.76267 36.8713 5.85779 42.5859 2.325 47.2752C2.10911 47.563 1.97764 47.9053 1.94533 48.2637C1.91302 48.622 1.98113 48.9823 2.14205 49.3042C2.30296 49.626 2.55032 49.8967 2.8564 50.0858C3.16248 50.275 3.51518 50.3752 3.875 50.3752H13.5625C13.5625 53.2014 14.6852 55.9119 16.6836 57.9103C18.6821 59.9087 21.3925 61.0314 24.2188 61.0314C27.045 61.0314 29.7554 59.9087 31.7539 57.9103C33.7523 55.9119 34.875 53.2014 34.875 50.3752H44.5625C44.9203 50.3741 45.2708 50.274 45.5752 50.0859C45.8795 49.8978 46.1259 49.6291 46.2869 49.3096C46.4501 48.9879 46.5202 48.627 46.4894 48.2675C46.4586 47.9081 46.3281 47.5644 46.1125 47.2752ZM24.2188 56.1877C22.5928 56.1811 21.0233 55.5906 19.7964 54.5237C18.5694 53.4567 17.7666 51.9845 17.5344 50.3752H31C30.7654 52.001 29.9487 53.4865 28.7014 54.5555C27.4542 55.6245 25.8613 56.2045 24.2188 56.1877Z" fill="#005FB0"/>
<path d="M44.5625 3.875C41.4969 3.875 38.5001 4.78406 35.9512 6.48722C33.4022 8.19038 31.4155 10.6112 30.2424 13.4434C29.0692 16.2757 28.7623 19.3922 29.3603 22.3989C29.9584 25.4056 31.4346 28.1674 33.6024 30.3352C35.7701 32.5029 38.5319 33.9791 41.5386 34.5772C44.5453 35.1752 47.6618 34.8683 50.4941 33.6951C53.3264 32.522 55.7471 30.5353 57.4503 27.9863C59.1534 25.4374 60.0625 22.4406 60.0625 19.375C60.0625 15.2641 58.4295 11.3217 55.5227 8.41485C52.6159 5.50803 48.6734 3.875 44.5625 3.875ZM46.9844 27.125H42.1406C41.6268 27.125 41.134 26.9209 40.7706 26.5575C40.4073 26.1942 40.2031 25.7014 40.2031 25.1875C40.2031 24.6736 40.4073 24.1808 40.7706 23.8175C41.134 23.4541 41.6268 23.25 42.1406 23.25H42.625V16.4106C42.1429 16.5482 41.6263 16.4936 41.1837 16.2582C40.7411 16.0229 40.4069 15.6251 40.2514 15.1486C40.0959 14.672 40.1311 14.1537 40.3498 13.7026C40.5684 13.2514 40.9533 12.9026 41.4238 12.7294L43.8456 11.7606C44.139 11.6436 44.4566 11.6001 44.7706 11.6338C45.0847 11.6676 45.3857 11.7777 45.6475 11.9544C45.9104 12.1321 46.1257 12.3717 46.2743 12.6521C46.423 12.9325 46.5005 13.2451 46.5 13.5625V23.25H46.9844C47.4982 23.25 47.9911 23.4541 48.3544 23.8175C48.7178 24.1808 48.9219 24.6736 48.9219 25.1875C48.9219 25.7014 48.7178 26.1942 48.3544 26.5575C47.9911 26.9209 47.4982 27.125 46.9844 27.125Z" fill="#005FB0"/>
</svg>
