<svg width="16" height="16" viewBox="0 0 16 16" fill="none" xmlns="http://www.w3.org/2000/svg">
<g clip-path="url(#clip0_142_1391)">
<path d="M3.51286 6.49996C3.51203 5.90697 3.62858 5.31967 3.85578 4.77193C4.08299 4.22419 4.41636 3.72683 4.83668 3.30853C5.257 2.89023 5.75595 2.55926 6.30478 2.33469C6.85361 2.11013 7.44146 1.9964 8.03444 2.00009C10.5088 2.01848 12.488 4.07517 12.488 6.55645V6.99996C12.488 9.23844 12.9563 10.5374 13.3688 11.2473C13.4132 11.3232 13.4369 11.4094 13.4373 11.4974C13.4378 11.5853 13.4151 11.6718 13.3715 11.7481C13.3278 11.8244 13.2649 11.8879 13.1889 11.9321C13.1129 11.9763 13.0266 11.9997 12.9387 12H3.06164C2.97372 11.9997 2.88741 11.9763 2.81142 11.9321C2.73543 11.8879 2.67245 11.8244 2.62884 11.748C2.58522 11.6717 2.56251 11.5852 2.563 11.4973C2.56348 11.4093 2.58715 11.3231 2.6316 11.2472C3.04431 10.5373 3.51285 9.23832 3.51285 6.99996L3.51286 6.49996Z" stroke="#555F71" stroke-width="2" stroke-linecap="round" stroke-linejoin="round"/>
<path d="M6 12V12.5C6 13.0304 6.21071 13.5391 6.58579 13.9142C6.96086 14.2893 7.46957 14.5 8 14.5C8.53043 14.5 9.03914 14.2893 9.41421 13.9142C9.78929 13.5391 10 13.0304 10 12.5V12" stroke="#555F71" stroke-width="2" stroke-linecap="round" stroke-linejoin="round"/>
<mask id="path-3-outside-1_142_1391" maskUnits="userSpaceOnUse" x="8" y="1.33301" width="7" height="7" fill="black">
<rect fill="white" x="8" y="1.33301" width="7" height="7"/>
<path fill-rule="evenodd" clip-rule="evenodd" d="M12.6667 4.66634C12.6667 5.40272 12.0697 5.99967 11.3333 5.99967C10.597 5.99967 10 5.40272 10 4.66634C10 3.92996 10.597 3.33301 11.3333 3.33301C12.0697 3.33301 12.6667 3.92996 12.6667 4.66634Z"/>
</mask>
<path fill-rule="evenodd" clip-rule="evenodd" d="M12.6667 4.66634C12.6667 5.40272 12.0697 5.99967 11.3333 5.99967C10.597 5.99967 10 5.40272 10 4.66634C10 3.92996 10.597 3.33301 11.3333 3.33301C12.0697 3.33301 12.6667 3.92996 12.6667 4.66634Z" fill="#FF0000"/>
<path d="M11.3333 7.99967C13.1743 7.99967 14.6667 6.50729 14.6667 4.66634H10.6667C10.6667 4.29815 10.9651 3.99967 11.3333 3.99967V7.99967ZM8 4.66634C8 6.50729 9.49238 7.99967 11.3333 7.99967V3.99967C11.7015 3.99967 12 4.29815 12 4.66634H8ZM11.3333 1.33301C9.49238 1.33301 8 2.82539 8 4.66634H12C12 5.03453 11.7015 5.33301 11.3333 5.33301V1.33301ZM14.6667 4.66634C14.6667 2.82539 13.1743 1.33301 11.3333 1.33301V5.33301C10.9651 5.33301 10.6667 5.03453 10.6667 4.66634H14.6667Z" fill="#F7F7FD" mask="url(#path-3-outside-1_142_1391)"/>
</g>
<defs>
<clipPath id="clip0_142_1391">
<rect width="16" height="16" fill="white"/>
</clipPath>
</defs>
</svg>
