<svg width="16" height="16" viewBox="0 0 16 16" fill="none" xmlns="http://www.w3.org/2000/svg">
<path fill-rule="evenodd" clip-rule="evenodd" d="M8.0001 1.59961C4.4673 1.59961 1.6001 4.46681 1.6001 7.99961C1.6001 11.5324 4.4673 14.3996 8.0001 14.3996C11.5329 14.3996 14.4001 11.5324 14.4001 7.99961C14.4001 4.46681 11.5329 1.59961 8.0001 1.59961ZM8.0001 3.51961C9.0625 3.51961 9.9201 4.37721 9.9201 5.43961C9.9201 6.50201 9.0625 7.35961 8.0001 7.35961C6.9377 7.35961 6.0801 6.50201 6.0801 5.43961C6.0801 4.37721 6.9377 3.51961 8.0001 3.51961ZM8.00016 12.6072C6.40016 12.6072 4.98576 11.788 4.16016 10.5464C4.17936 9.2728 6.72016 8.5752 8.00016 8.5752C9.27376 8.5752 11.821 9.2728 11.8402 10.5464C11.0146 11.788 9.60016 12.6072 8.00016 12.6072Z" fill="#555F71"/>
</svg>
