<svg width="128" height="128" viewBox="0 0 128 128" fill="none" xmlns="http://www.w3.org/2000/svg">
<path d="M63.9999 5.33337C44.8853 5.33337 29.3333 20.8854 29.3333 40V93.3334C29.3333 94.0406 29.6142 94.7189 30.1143 95.219C30.6144 95.7191 31.2927 96 31.9999 96H95.9999C96.7072 96 97.3854 95.7191 97.8855 95.219C98.3856 94.7189 98.6666 94.0406 98.6666 93.3334V40C98.6666 20.8854 83.1146 5.33337 63.9999 5.33337Z" fill="#76C0FF"/>
<path d="M101.333 90.6667H26.6667C25.9594 90.6667 25.2811 90.9477 24.781 91.4478C24.281 91.9479 24 92.6262 24 93.3334V104C24 104.707 24.281 105.386 24.781 105.886C25.2811 106.386 25.9594 106.667 26.6667 106.667H101.333C102.041 106.667 102.719 106.386 103.219 105.886C103.719 105.386 104 104.707 104 104V93.3334C104 92.6262 103.719 91.9479 103.219 91.4478C102.719 90.9477 102.041 90.6667 101.333 90.6667Z" fill="#369BF1"/>
<path d="M74.6666 34.6667H66.6666V26.6667C66.6666 25.9594 66.3857 25.2811 65.8856 24.781C65.3855 24.281 64.7072 24 64 24C63.2927 24 62.6144 24.281 62.1143 24.781C61.6142 25.2811 61.3333 25.9594 61.3333 26.6667V34.6667H53.3333C49.8506 34.6827 49.84 39.984 53.3333 40H61.3333V64C61.344 67.472 66.6533 67.4987 66.6666 64V40H74.6666C78.1466 39.9867 78.16 34.68 74.6666 34.6667Z" fill="white"/>
<path d="M98.6667 101.333H29.3333C21.9813 101.333 16 107.315 16 114.667V120C16 120.707 16.281 121.386 16.781 121.886C17.2811 122.386 17.9594 122.667 18.6667 122.667H109.333C110.041 122.667 110.719 122.386 111.219 121.886C111.719 121.386 112 120.707 112 120V114.667C112 107.315 106.019 101.333 98.6667 101.333Z" fill="#005FB0"/>
</svg>
